<svg width="24" height="24" viewBox="0 0 24 24" fill="none" xmlns="http://www.w3.org/2000/svg">
<rect x="0.5" y="0.5" width="23" height="23" rx="11.5" stroke="#008BFF"/>
<path d="M16.4716 8.47157C16.7319 8.21122 16.7319 7.78911 16.4716 7.52876C16.2112 7.26841 15.7891 7.26841 15.5288 7.52876L12.0002 11.0574L8.47157 7.52876C8.21122 7.26841 7.78911 7.26841 7.52876 7.52876C7.26841 7.78911 7.26841 8.21122 7.52876 8.47157L11.0574 12.0002L7.52876 15.5288C7.26841 15.7891 7.26841 16.2112 7.52876 16.4716C7.78911 16.7319 8.21122 16.7319 8.47157 16.4716L12.0002 12.943L15.5288 16.4716C15.7891 16.7319 16.2112 16.7319 16.4716 16.4716C16.7319 16.2112 16.7319 15.7891 16.4716 15.5288L12.943 12.0002L16.4716 8.47157Z" fill="#008BFF"/>
</svg>
