<svg width="306" height="214" viewBox="0 0 306 214" fill="none" xmlns="http://www.w3.org/2000/svg">
<g clip-path="url(#clip0_200965_8017)">
<rect width="306" height="214" rx="20" fill="black"/>
<g opacity="0.5">
<line y1="3" x2="1011" y2="3" stroke="white" stroke-opacity="0.2" stroke-width="2"/>
<line y1="17" x2="1011" y2="17" stroke="white" stroke-opacity="0.2" stroke-width="2"/>
<line y1="31" x2="1011" y2="31" stroke="white" stroke-opacity="0.2" stroke-width="2"/>
<line y1="45" x2="1011" y2="45" stroke="white" stroke-opacity="0.2" stroke-width="2"/>
<line y1="59" x2="1011" y2="59" stroke="white" stroke-opacity="0.2" stroke-width="2"/>
<line y1="73" x2="1011" y2="73" stroke="white" stroke-opacity="0.2" stroke-width="2"/>
<line y1="87" x2="1011" y2="87" stroke="white" stroke-opacity="0.2" stroke-width="2"/>
<line y1="101" x2="1011" y2="101" stroke="white" stroke-opacity="0.2" stroke-width="2"/>
<line y1="115" x2="1011" y2="115" stroke="white" stroke-opacity="0.2" stroke-width="2"/>
<line y1="129" x2="1011" y2="129" stroke="white" stroke-opacity="0.2" stroke-width="2"/>
<line y1="143" x2="1011" y2="143" stroke="white" stroke-opacity="0.2" stroke-width="2"/>
<line y1="157" x2="1011" y2="157" stroke="white" stroke-opacity="0.2" stroke-width="2"/>
<line y1="171" x2="1011" y2="171" stroke="white" stroke-opacity="0.2" stroke-width="2"/>
<line y1="185" x2="1011" y2="185" stroke="white" stroke-opacity="0.2" stroke-width="2"/>
<line y1="199" x2="1011" y2="199" stroke="white" stroke-opacity="0.2" stroke-width="2"/>
<line y1="213" x2="1011" y2="213" stroke="white" stroke-opacity="0.2" stroke-width="2"/>
</g>
<path d="M27.82 161.18V175H24.4L19.66 163.82C19.8 165.04 20.02 166.8 20.02 169.36V175H17.62V161.18H20.96L25.78 172.38C25.66 171.62 25.42 169.62 25.42 167.66V161.18H27.82ZM40.1575 164.42V175H37.9375L37.7975 173.52C37.0175 174.72 36.0175 175.3 34.5575 175.3C32.6375 175.3 31.6175 174.06 31.6175 172.02V164.42H34.1775V171.7C34.1775 172.94 34.5775 173.36 35.4575 173.36C36.3375 173.36 37.0575 172.78 37.5975 171.86V164.42H40.1575ZM49.1633 172.86L50.0633 174.5C49.3033 175.04 48.3433 175.3 47.4033 175.3C45.3233 175.28 44.2233 174.1 44.2233 171.84V166.26H42.5633V164.42H44.2233V162.08L46.7833 161.78V164.42H49.2433L48.9833 166.26H46.7833V171.78C46.7833 172.82 47.1233 173.24 47.9033 173.24C48.3033 173.24 48.7033 173.12 49.1633 172.86ZM55.6433 164.12C57.1633 164.12 58.4033 164.6 59.4033 165.38L58.4033 166.88C57.5233 166.32 56.6833 166.02 55.7433 166.02C54.7233 166.02 54.1433 166.44 54.1433 167.08C54.1433 167.78 54.5633 168.1 56.3633 168.6C58.5233 169.18 59.7433 170.06 59.7433 171.94C59.7433 174.14 57.7033 175.3 55.2833 175.3C53.4633 175.3 52.0433 174.68 51.0633 173.8L52.3433 172.36C53.1633 172.98 54.1433 173.4 55.2233 173.4C56.3633 173.4 57.1033 172.92 57.1033 172.12C57.1033 171.24 56.6833 170.96 54.7033 170.4C52.5233 169.8 51.5633 168.76 51.5633 167.2C51.5633 165.44 53.1833 164.12 55.6433 164.12ZM70.3959 172.2C70.3959 173.06 70.6759 173.36 71.1959 173.56L70.6559 175.26C69.4959 175.16 68.7359 174.74 68.3159 173.72C67.5759 174.84 66.4159 175.3 65.1559 175.3C63.0359 175.3 61.7359 173.96 61.7359 172.04C61.7359 169.74 63.4759 168.5 66.5559 168.5H67.8759V167.9C67.8759 166.52 67.2559 166.06 65.8959 166.06C65.1759 166.06 64.1559 166.26 63.0959 166.62L62.4959 164.88C63.7959 164.38 65.1359 164.12 66.3359 164.12C69.1559 164.12 70.3959 165.42 70.3959 167.76V172.2ZM65.8359 173.44C66.7359 173.44 67.3959 172.98 67.8759 172.14V170H66.8159C65.1559 170 64.3359 170.6 64.3359 171.84C64.3359 172.86 64.8559 173.44 65.8359 173.44ZM87.5539 175L84.4939 169.46H82.8139V175H80.1739V161.18H84.2939C87.9139 161.18 89.7739 162.5 89.7739 165.24C89.7739 167.12 88.8539 168.24 86.9739 168.98L90.5939 175H87.5539ZM82.8139 163.1V167.56H84.4539C86.0939 167.56 87.0139 166.9 87.0139 165.24C87.0139 163.74 86.1539 163.1 84.2339 163.1H82.8139ZM97.2842 164.12C100.404 164.12 102.244 166.24 102.244 169.7C102.244 173.04 100.384 175.3 97.2642 175.3C94.1442 175.3 92.2842 173.18 92.2842 169.7C92.2842 166.38 94.1442 164.12 97.2842 164.12ZM97.2842 166.06C95.7842 166.06 94.9842 167.2 94.9842 169.7C94.9842 172.24 95.7642 173.36 97.2642 173.36C98.7642 173.36 99.5442 172.22 99.5442 169.7C99.5442 167.18 98.7642 166.06 97.2842 166.06ZM110.884 164.12C113.344 164.12 114.804 166.16 114.804 169.7C114.804 173 113.224 175.3 110.624 175.3C109.464 175.3 108.504 174.78 107.824 173.92L107.664 175H105.404V160.18L107.964 159.9V165.62C108.644 164.68 109.664 164.12 110.884 164.12ZM109.924 173.38C111.224 173.38 112.124 172.36 112.124 169.7C112.124 166.88 111.284 166.04 110.064 166.04C109.144 166.04 108.464 166.66 107.964 167.48V172.16C108.424 172.92 109.124 173.38 109.924 173.38ZM126.701 169.46C126.701 169.8 126.661 170.22 126.641 170.5H120.001C120.181 172.66 121.201 173.36 122.601 173.36C123.541 173.36 124.321 173.06 125.241 172.42L126.301 173.88C125.261 174.72 123.981 175.3 122.381 175.3C119.101 175.3 117.341 173.12 117.341 169.78C117.341 166.56 119.041 164.12 122.041 164.12C125.001 164.12 126.701 166.12 126.701 169.46ZM124.161 168.84V168.72C124.161 166.98 123.541 165.94 122.101 165.94C120.901 165.94 120.141 166.74 120.001 168.84H124.161ZM134.978 164.14C135.358 164.14 135.698 164.18 136.038 164.28L135.598 166.76C135.278 166.68 135.038 166.64 134.658 166.64C133.378 166.64 132.718 167.58 132.318 169.36V175H129.758V164.42H131.978L132.218 166.5C132.718 164.98 133.738 164.14 134.978 164.14ZM143.59 172.86L144.49 174.5C143.73 175.04 142.77 175.3 141.83 175.3C139.75 175.28 138.65 174.1 138.65 171.84V166.26H136.99V164.42H138.65V162.08L141.21 161.78V164.42H143.67L143.41 166.26H141.21V171.78C141.21 172.82 141.55 173.24 142.33 173.24C142.73 173.24 143.13 173.12 143.59 172.86ZM150.07 164.12C151.59 164.12 152.83 164.6 153.83 165.38L152.83 166.88C151.95 166.32 151.11 166.02 150.17 166.02C149.15 166.02 148.57 166.44 148.57 167.08C148.57 167.78 148.99 168.1 150.79 168.6C152.95 169.18 154.17 170.06 154.17 171.94C154.17 174.14 152.13 175.3 149.71 175.3C147.89 175.3 146.47 174.68 145.49 173.8L146.77 172.36C147.59 172.98 148.57 173.4 149.65 173.4C150.79 173.4 151.53 172.92 151.53 172.12C151.53 171.24 151.11 170.96 149.13 170.4C146.95 169.8 145.99 168.76 145.99 167.2C145.99 165.44 147.61 164.12 150.07 164.12Z" fill="white"/>
<path d="M249.438 162.54C251.982 162.54 253.294 164.54 253.294 168.124C253.294 171.724 251.982 173.74 249.438 173.74C246.91 173.74 245.582 171.724 245.582 168.124C245.582 164.54 246.91 162.54 249.438 162.54ZM249.438 164.092C248.254 164.092 247.694 165.148 247.694 168.124C247.694 171.132 248.254 172.188 249.438 172.188C250.622 172.188 251.182 171.164 251.182 168.124C251.182 165.1 250.622 164.092 249.438 164.092ZM260.962 167.724C262.434 168.38 263.17 169.324 263.17 170.604C263.17 172.364 261.618 173.74 259.17 173.74C256.754 173.74 255.266 172.38 255.266 170.636C255.266 169.324 256.034 168.46 257.314 167.916C256.162 167.292 255.698 166.428 255.698 165.372C255.698 163.612 257.298 162.54 259.218 162.54C261.122 162.54 262.738 163.5 262.738 165.292C262.738 166.284 262.178 167.1 260.962 167.724ZM259.218 163.98C258.29 163.98 257.682 164.46 257.682 165.404C257.682 166.316 258.258 166.716 259.298 167.1L259.602 167.212C260.45 166.684 260.754 166.156 260.754 165.388C260.754 164.54 260.226 163.98 259.218 163.98ZM259.218 172.22C260.418 172.22 261.09 171.532 261.09 170.604C261.09 169.596 260.562 169.148 259.122 168.62L258.626 168.444C257.762 168.908 257.33 169.596 257.33 170.572C257.33 171.596 258.066 172.22 259.218 172.22ZM269.544 160.508L271.304 160.908L267.576 175.228L265.8 174.812L269.544 160.508ZM276.432 162.54C278.656 162.54 279.936 163.884 279.936 165.564C279.936 167.388 278.896 168.716 275.568 171.884H280.176L279.952 173.5H273.248V171.996C276.928 168.252 277.824 167.244 277.824 165.724C277.824 164.732 277.2 164.156 276.272 164.156C275.424 164.156 274.864 164.508 274.192 165.292L272.944 164.3C273.808 163.18 274.944 162.54 276.432 162.54ZM285.601 162.54C288.097 162.54 289.377 164.236 289.377 166.716C289.377 171.148 287.425 172.876 283.105 173.9L282.673 172.444C285.361 171.74 286.897 170.7 287.185 168.572C286.673 169.228 285.921 169.692 284.881 169.692C283.217 169.692 281.857 168.364 281.857 166.188C281.857 163.932 283.521 162.54 285.601 162.54ZM285.441 168.204C286.177 168.204 286.801 167.804 287.281 167.1C287.313 164.876 286.801 164.06 285.601 164.06C284.561 164.06 283.905 164.78 283.905 166.156C283.905 167.628 284.577 168.204 285.441 168.204Z" fill="white"/>
<circle opacity="0.8" cx="20" cy="128" r="4" fill="white"/>
<circle cx="33" cy="128" r="4" fill="white"/>
<circle cx="46" cy="128" r="4" fill="white"/>
<circle cx="59" cy="128" r="4" fill="white"/>
<circle opacity="0.8" cx="83" cy="128" r="4" fill="white"/>
<circle cx="96" cy="128" r="4" fill="white"/>
<circle cx="109" cy="128" r="4" fill="white"/>
<circle cx="122" cy="128" r="4" fill="white"/>
<circle opacity="0.8" cx="146" cy="128" r="4" fill="white"/>
<circle cx="159" cy="128" r="4" fill="white"/>
<circle cx="172" cy="128" r="4" fill="white"/>
<circle cx="185" cy="128" r="4" fill="white"/>
<path d="M210.816 121.3C213.996 121.3 215.636 123.8 215.636 128.28C215.636 132.78 213.996 135.3 210.816 135.3C207.656 135.3 205.996 132.78 205.996 128.28C205.996 123.8 207.656 121.3 210.816 121.3ZM210.816 123.24C209.336 123.24 208.636 124.56 208.636 128.28C208.636 132.04 209.336 133.36 210.816 133.36C212.296 133.36 212.996 132.08 212.996 128.28C212.996 124.5 212.296 123.24 210.816 123.24ZM224.281 121.3C227.461 121.3 229.101 123.8 229.101 128.28C229.101 132.78 227.461 135.3 224.281 135.3C221.121 135.3 219.461 132.78 219.461 128.28C219.461 123.8 221.121 121.3 224.281 121.3ZM224.281 123.24C222.801 123.24 222.101 124.56 222.101 128.28C222.101 132.04 222.801 133.36 224.281 133.36C225.761 133.36 226.461 132.08 226.461 128.28C226.461 124.5 225.761 123.24 224.281 123.24ZM242.525 129.96V131.92H240.905V135H238.405V131.92H232.685V130.16L236.605 121.28L238.785 122.1L235.345 129.96H238.425L238.685 126.58H240.905V129.96H242.525ZM249.428 121.3C252.208 121.3 253.808 122.98 253.808 125.08C253.808 127.36 252.508 129.02 248.348 132.98H254.108L253.828 135H245.448V133.12C250.048 128.44 251.168 127.18 251.168 125.28C251.168 124.04 250.388 123.32 249.228 123.32C248.168 123.32 247.468 123.76 246.628 124.74L245.068 123.5C246.148 122.1 247.568 121.3 249.428 121.3Z" fill="white"/>
<circle opacity="0.8" cx="20" cy="128" r="4" fill="white"/>
<circle cx="33" cy="128" r="4" fill="white"/>
<circle cx="46" cy="128" r="4" fill="white"/>
<circle cx="59" cy="128" r="4" fill="white"/>
<circle opacity="0.8" cx="83" cy="128" r="4" fill="white"/>
<circle cx="96" cy="128" r="4" fill="white"/>
<circle cx="109" cy="128" r="4" fill="white"/>
<circle cx="122" cy="128" r="4" fill="white"/>
<circle opacity="0.8" cx="146" cy="128" r="4" fill="white"/>
<circle cx="159" cy="128" r="4" fill="white"/>
<circle cx="172" cy="128" r="4" fill="white"/>
<circle cx="185" cy="128" r="4" fill="white"/>
<path d="M210.816 121.3C213.996 121.3 215.636 123.8 215.636 128.28C215.636 132.78 213.996 135.3 210.816 135.3C207.656 135.3 205.996 132.78 205.996 128.28C205.996 123.8 207.656 121.3 210.816 121.3ZM210.816 123.24C209.336 123.24 208.636 124.56 208.636 128.28C208.636 132.04 209.336 133.36 210.816 133.36C212.296 133.36 212.996 132.08 212.996 128.28C212.996 124.5 212.296 123.24 210.816 123.24ZM224.281 121.3C227.461 121.3 229.101 123.8 229.101 128.28C229.101 132.78 227.461 135.3 224.281 135.3C221.121 135.3 219.461 132.78 219.461 128.28C219.461 123.8 221.121 121.3 224.281 121.3ZM224.281 123.24C222.801 123.24 222.101 124.56 222.101 128.28C222.101 132.04 222.801 133.36 224.281 133.36C225.761 133.36 226.461 132.08 226.461 128.28C226.461 124.5 225.761 123.24 224.281 123.24ZM242.525 129.96V131.92H240.905V135H238.405V131.92H232.685V130.16L236.605 121.28L238.785 122.1L235.345 129.96H238.425L238.685 126.58H240.905V129.96H242.525ZM249.428 121.3C252.208 121.3 253.808 122.98 253.808 125.08C253.808 127.36 252.508 129.02 248.348 132.98H254.108L253.828 135H245.448V133.12C250.048 128.44 251.168 127.18 251.168 125.28C251.168 124.04 250.388 123.32 249.228 123.32C248.168 123.32 247.468 123.76 246.628 124.74L245.068 123.5C246.148 122.1 247.568 121.3 249.428 121.3Z" fill="white"/>
<path fill-rule="evenodd" clip-rule="evenodd" d="M280.23 32.2429H274.105L270.903 41.4935L267.562 32.2429H261.298V46.6468L254.895 32.2429H249.744L243.341 46.9594H247.795L249.048 44.0163H255.73L256.983 46.9594H265.335V36.7278L269.094 46.9594H272.574L276.332 36.7278V46.9594H280.23V49.2019H275.079L270.903 53.8272L266.588 49.2019H248.909V63.9185H266.449L270.764 59.1532L275.079 63.9185H280.23V65.7402H274.105L270.764 62.0964L267.423 65.7402H246.682V48.9215H240L248.352 30H256.426L259.349 36.4474V30H269.372L271.042 34.9057L272.713 30H280.23V32.2429ZM280.23 52.4254L276.472 56.49L280.23 60.5546V63.9185L273.409 56.49L280.23 49.2019V52.4254ZM261.298 63.9185V60.4146H252.946V58.1721H261.159V54.8083H252.946V52.5658H261.298V49.2019L268.258 56.49L261.298 63.9185ZM250.301 40.7924L252.25 36.0271L254.199 40.7924H250.301Z" fill="white"/>
</g>
<defs>
<clipPath id="clip0_200965_8017">
<rect width="306" height="214" rx="20" fill="white"/>
</clipPath>
</defs>
</svg>
