<svg width="381" height="381" viewBox="0 0 381 381" fill="none" xmlns="http://www.w3.org/2000/svg">
<path d="M175.554 73.7519C175.554 73.7519 163.707 134.781 95.5878 137.192C27.4684 139.603 8.82781 237.858 77.9799 256.108C147.132 274.358 113.065 321.591 158.582 331.157C210.315 342.029 210.957 265.494 246.93 264.264C326.326 261.549 367.412 225.187 338.699 195.694C288.297 143.923 262.33 152.268 264.093 110.895C265.856 69.5228 191.272 23.8954 175.554 73.7519Z" fill="#C5E2FB"/>
<path d="M253.671 117.703L91.9671 151.076C86.8151 152.139 83.5006 157.177 84.5639 162.329L105.392 263.249C106.455 268.401 111.493 271.715 116.645 270.652L278.349 237.279C283.501 236.216 286.815 231.178 285.752 226.026L264.924 125.107C263.861 119.955 258.823 116.64 253.671 117.703Z" fill="#008BFF"/>
<path d="M248.925 129.821L230.301 133.664C227.21 134.302 225.221 137.325 225.859 140.416L229.703 159.04C230.341 162.131 233.364 164.12 236.455 163.482L255.079 159.638C258.17 159 260.159 155.977 259.521 152.886L255.677 134.263C255.039 131.171 252.016 129.183 248.925 129.821Z" fill="white"/>
<path d="M174.383 208.433L111.545 221.402C111.338 221.444 111.206 221.646 111.248 221.852L113.15 231.063C113.192 231.27 113.394 231.402 113.6 231.36L176.438 218.391C176.644 218.348 176.777 218.147 176.734 217.941L174.833 208.729C174.791 208.523 174.589 208.39 174.383 208.433Z" fill="white"/>
<path d="M205.234 222.112L115.513 240.629C115.307 240.672 115.174 240.873 115.217 241.079L117.118 250.291C117.16 250.497 117.362 250.63 117.568 250.587L207.289 232.071C207.495 232.028 207.628 231.826 207.585 231.62L205.684 222.409C205.641 222.203 205.44 222.07 205.234 222.112Z" fill="white"/>
<path d="M283.424 263.453C298.409 263.453 310.557 251.305 310.557 236.32C310.557 221.335 298.409 209.188 283.424 209.188C268.439 209.188 256.292 221.335 256.292 236.32C256.292 251.305 268.439 263.453 283.424 263.453Z" fill="#008BFF" stroke="white" stroke-width="15" stroke-miterlimit="10"/>
<path d="M293.877 234.047H286.15C286.09 234.047 286.031 234.036 285.976 234.013C285.921 233.99 285.871 233.956 285.829 233.914C285.787 233.872 285.753 233.822 285.73 233.767C285.707 233.712 285.696 233.653 285.696 233.593V225.867C285.696 225.264 285.456 224.686 285.03 224.26C284.604 223.834 284.026 223.595 283.423 223.595C282.821 223.595 282.243 223.834 281.817 224.26C281.39 224.686 281.151 225.264 281.151 225.867V233.593C281.151 233.653 281.139 233.712 281.116 233.767C281.094 233.822 281.06 233.872 281.018 233.914C280.976 233.956 280.926 233.99 280.87 234.013C280.815 234.036 280.756 234.047 280.697 234.047H272.971C272.372 234.053 271.8 234.295 271.378 234.72C270.956 235.146 270.72 235.721 270.72 236.32C270.72 236.919 270.956 237.494 271.378 237.919C271.8 238.345 272.372 238.587 272.971 238.592H280.697C280.818 238.592 280.933 238.64 281.019 238.725C281.104 238.81 281.152 238.926 281.152 239.047V246.773C281.152 247.375 281.391 247.953 281.817 248.379C282.244 248.805 282.821 249.045 283.424 249.045C284.027 249.045 284.605 248.805 285.031 248.379C285.457 247.953 285.696 247.375 285.696 246.773V239.047C285.696 238.926 285.744 238.81 285.83 238.725C285.915 238.64 286.03 238.592 286.151 238.592H293.877C294.476 238.587 295.049 238.345 295.47 237.919C295.892 237.494 296.129 236.919 296.129 236.32C296.129 235.721 295.892 235.146 295.47 234.72C295.049 234.295 294.476 234.053 293.877 234.047Z" fill="white"/>
</svg>
