<svg width="34" height="17" viewBox="0 0 34 17" fill="none" xmlns="http://www.w3.org/2000/svg">
<path d="M5.82353 2.5L7.13099 6.6459H11.362L7.93905 9.2082L9.24651 13.3541L5.82353 10.7918L2.40054 13.3541L3.70801 9.2082L0.285024 6.6459H4.51607L5.82353 2.5Z" fill="#717D96"/>
<path d="M17.542 13.1193C16.9397 13.1193 16.4028 13.0085 15.9312 12.7869C15.4624 12.5653 15.0903 12.2599 14.8147 11.8707C14.5391 11.4815 14.3957 11.0355 14.3843 10.5327H16.1741C16.194 10.8707 16.336 11.1449 16.6002 11.3551C16.8644 11.5653 17.1783 11.6705 17.542 11.6705C17.8318 11.6705 18.0874 11.6065 18.309 11.4787C18.5335 11.348 18.7082 11.1676 18.8332 10.9375C18.961 10.7045 19.0249 10.4375 19.0249 10.1364C19.0249 9.82955 18.9596 9.55966 18.8289 9.3267C18.7011 9.09375 18.5235 8.91193 18.2962 8.78125C18.069 8.65057 17.809 8.58381 17.5164 8.58097C17.2607 8.58097 17.0122 8.63352 16.7707 8.73864C16.532 8.84375 16.346 8.98722 16.2124 9.16903L14.5718 8.875L14.9852 4.27273H20.3204V5.78125H16.5065L16.2806 7.96733H16.3318C16.4852 7.75142 16.7167 7.57244 17.0264 7.4304C17.336 7.28835 17.6826 7.21733 18.0661 7.21733C18.5917 7.21733 19.0604 7.34091 19.4724 7.58807C19.8843 7.83523 20.2096 8.17472 20.4482 8.60653C20.6869 9.03551 20.8048 9.52983 20.8019 10.0895C20.8048 10.6776 20.6684 11.2003 20.3928 11.6577C20.1201 12.1122 19.738 12.4702 19.2465 12.7315C18.7579 12.9901 18.1897 13.1193 17.542 13.1193ZM22.8857 13.1108C22.6045 13.1108 22.363 13.0114 22.1613 12.8125C21.9624 12.6108 21.863 12.3693 21.863 12.0881C21.863 11.8097 21.9624 11.571 22.1613 11.3722C22.363 11.1733 22.6045 11.0739 22.8857 11.0739C23.1585 11.0739 23.3971 11.1733 23.6016 11.3722C23.8062 11.571 23.9085 11.8097 23.9085 12.0881C23.9085 12.2756 23.8602 12.4474 23.7636 12.6037C23.6698 12.7571 23.5462 12.8807 23.3928 12.9744C23.2394 13.0653 23.0704 13.1108 22.8857 13.1108ZM28.4521 13.1918C27.7192 13.1889 27.0885 13.0085 26.5601 12.6506C26.0345 12.2926 25.6297 11.7741 25.3456 11.0952C25.0644 10.4162 24.9251 9.59943 24.928 8.64489C24.928 7.69318 25.0686 6.8821 25.3499 6.21165C25.634 5.54119 26.0388 5.03125 26.5644 4.68182C27.0928 4.32955 27.722 4.15341 28.4521 4.15341C29.1823 4.15341 29.8101 4.32955 30.3357 4.68182C30.8641 5.03409 31.2703 5.54545 31.5544 6.21591C31.8385 6.88352 31.9791 7.69318 31.9763 8.64489C31.9763 9.60227 31.8342 10.4205 31.5501 11.0994C31.2689 11.7784 30.8655 12.2969 30.3399 12.6548C29.8144 13.0128 29.1851 13.1918 28.4521 13.1918ZM28.4521 11.6619C28.9521 11.6619 29.3513 11.4105 29.6496 10.9077C29.9479 10.4048 30.0956 9.65057 30.0928 8.64489C30.0928 7.98295 30.0246 7.43182 29.8882 6.99148C29.7547 6.55114 29.5644 6.22017 29.3172 5.99858C29.0729 5.77699 28.7845 5.66619 28.4521 5.66619C27.955 5.66619 27.5573 5.91477 27.259 6.41193C26.9607 6.90909 26.8101 7.65341 26.8073 8.64489C26.8073 9.31534 26.874 9.875 27.0075 10.3239C27.1439 10.7699 27.3357 11.1051 27.5828 11.3295C27.83 11.5511 28.1198 11.6619 28.4521 11.6619Z" fill="#717D96"/>
</svg>
