<svg width="392" height="344" viewBox="0 0 392 344" fill="none" xmlns="http://www.w3.org/2000/svg">
<circle cx="209.645" cy="195.429" r="136.53" fill="#C5E2FB"/>
<circle cx="56.7783" cy="156.92" r="31.1179" fill="#C5E2FB"/>
<circle cx="116.68" cy="32.4487" r="19.4487" fill="#C5E2FB"/>
<circle cx="331.004" cy="57.7325" r="15.17" fill="#C5E2FB"/>
<circle cx="326.337" cy="285.67" r="7.3905" fill="#C5E2FB"/>
<path d="M244.482 66.2775C244.075 66.1909 244.075 65.6096 244.482 65.523L254.105 63.4767C254.253 63.4452 254.369 63.3295 254.401 63.1812L256.471 53.6356C256.559 53.2303 257.137 53.2303 257.225 53.6356L259.295 63.1812C259.327 63.3295 259.443 63.4452 259.592 63.4767L269.214 65.523C269.622 65.6096 269.622 66.1909 269.214 66.2775L259.592 68.3238C259.443 68.3554 259.327 68.4711 259.295 68.6194L257.225 78.1649C257.137 78.5702 256.559 78.5702 256.471 78.1649L254.401 68.6194C254.369 68.4711 254.253 68.3554 254.105 68.3238L244.482 66.2775Z" fill="#008BFF"/>
<path d="M49.0003 211.943C49.1226 211.365 49.9472 211.365 50.0695 211.943L52.9275 225.445C52.972 225.656 53.1357 225.82 53.3458 225.866L66.6893 228.773C67.2628 228.898 67.2628 229.716 66.6893 229.841L53.3458 232.748C53.1357 232.793 52.972 232.958 52.9275 233.168L50.0695 246.671C49.9472 247.248 49.1226 247.248 49.0003 246.671L46.1423 233.168C46.0978 232.958 45.9341 232.793 45.724 232.748L32.3805 229.841C31.807 229.716 31.807 228.898 32.3805 228.773L45.724 225.866C45.9341 225.82 46.0978 225.656 46.1423 225.445L49.0003 211.943Z" fill="#008BFF"/>
<path d="M245.797 319.182C245.92 318.605 246.744 318.605 246.866 319.182L248.641 327.566C248.686 327.776 248.849 327.941 249.059 327.987L257.357 329.795C257.931 329.919 257.931 330.737 257.357 330.862L249.059 332.67C248.849 332.716 248.686 332.881 248.641 333.091L246.866 341.475C246.744 342.052 245.92 342.052 245.797 341.475L244.023 333.091C243.978 332.881 243.814 332.716 243.604 332.67L235.306 330.862C234.733 330.737 234.733 329.919 235.306 329.795L243.604 327.987C243.814 327.941 243.978 327.776 244.023 327.566L245.797 319.182Z" fill="#008BFF"/>
<path d="M338.538 143.168L254.285 127.023C251.321 126.455 248.458 128.397 247.89 131.361L226.573 242.602C226.25 244.288 226.738 246.029 227.892 247.301L267.039 290.482C268.844 292.472 271.828 292.855 274.077 291.386L319.717 261.56C320.958 260.749 321.816 259.469 322.095 258.014L342.876 149.563C343.444 146.599 341.502 143.736 338.538 143.168Z" fill="#008BFF"/>
<path d="M279.416 165.789C273.36 164.495 267.411 168.307 266.13 174.303C265.096 179.144 264.561 191.042 280.97 206.691C281.265 206.969 281.63 207.161 282.026 207.246C282.422 207.33 282.834 207.305 283.216 207.171C304.588 199.593 308.962 188.515 309.996 183.674C311.277 177.678 307.404 171.768 301.349 170.475C295.293 169.181 288.977 174.712 288.977 174.712C288.977 174.712 285.471 167.083 279.416 165.789Z" fill="white"/>
<circle cx="272.8" cy="262.425" r="8.69412" fill="#C5E2FB"/>
<path d="M184.987 91.9205L73.5889 132.269C70.2321 133.485 68.4966 137.192 69.7124 140.549L122.267 285.646C122.959 287.556 124.508 289.029 126.45 289.625L203.4 313.219C206.439 314.151 209.704 312.735 211.102 309.881L244.208 242.234C244.979 240.659 245.077 238.839 244.48 237.191L193.266 95.7969C192.05 92.4402 188.344 90.7046 184.987 91.9205Z" fill="#C5E2FB" stroke="#008BFF" stroke-width="2"/>
<path d="M147.588 161.759C147.912 161.632 148.158 161.358 148.25 161.022L148.25 161.022L148.25 161.022L148.251 161.018L148.257 160.996C148.261 160.984 148.265 160.969 148.271 160.95C148.275 160.936 148.279 160.92 148.284 160.903C148.309 160.819 148.348 160.692 148.4 160.528C148.504 160.2 148.664 159.722 148.884 159.136C149.324 157.962 150 156.363 150.939 154.664C152.836 151.229 155.716 147.555 159.75 145.973C167.975 142.745 177.217 146.734 180.403 154.853C181.722 158.215 183.311 164.213 182.028 172.757C180.745 181.308 176.576 192.477 166.27 206.158C166.019 206.487 165.683 206.741 165.298 206.892C164.913 207.043 164.494 207.086 164.086 207.015C147.227 203.994 136.574 198.641 129.818 193.245C123.067 187.853 120.152 182.375 118.833 179.014C115.647 170.894 119.71 161.684 127.935 158.457C131.969 156.874 136.578 157.609 140.305 158.836C142.15 159.444 143.732 160.157 144.853 160.718C145.413 160.998 145.855 161.239 146.155 161.409C146.305 161.494 146.419 161.561 146.494 161.605C146.532 161.628 146.56 161.644 146.578 161.655L146.597 161.667L146.6 161.669L146.6 161.669L146.601 161.669C146.897 161.853 147.263 161.886 147.588 161.759Z" fill="#008BFF" stroke="#008BFF" stroke-width="2.21178" stroke-linecap="round" stroke-linejoin="round"/>
<circle cx="191.543" cy="275.466" r="11.0348" fill="#008BFF"/>
</svg>
