<svg width="22" height="24" viewBox="0 0 22 24" fill="none" xmlns="http://www.w3.org/2000/svg">
<path d="M9.1651 10C9.67128 10 10.0816 10.4477 10.0816 11V17C10.0816 17.5523 9.67128 18 9.1651 18C8.65893 18 8.24859 17.5523 8.24859 17V11C8.24859 10.4477 8.65893 10 9.1651 10Z" fill="#929292"/>
<path d="M13.7477 17V11C13.7477 10.4477 13.3373 10 12.8312 10C12.325 10 11.9146 10.4477 11.9146 11V17C11.9146 17.5523 12.325 18 12.8312 18C13.3373 18 13.7477 17.5523 13.7477 17Z" fill="#929292"/>
<path fill-rule="evenodd" clip-rule="evenodd" d="M6.41557 5V4C6.41557 3.20435 6.70525 2.44129 7.22089 1.87868C7.73653 1.31607 8.43588 1 9.1651 1H12.8312C13.5604 1 14.2597 1.31607 14.7754 1.87868C15.291 2.44129 15.5807 3.20435 15.5807 4V5H19.2467C19.7529 5 20.1632 5.44772 20.1632 6C20.1632 6.55228 19.7529 7 19.2467 7H18.3302V20C18.3302 20.7957 18.0405 21.5587 17.5249 22.1213C17.0093 22.6839 16.3099 23 15.5807 23H6.41557C5.68635 23 4.98699 22.6839 4.47135 22.1213C3.95571 21.5587 3.66603 20.7957 3.66603 20V7H2.74952C2.24334 7 1.83301 6.55228 1.83301 6C1.83301 5.44772 2.24334 5 2.74952 5H6.41557ZM8.51703 3.29289C8.68891 3.10536 8.92203 3 9.1651 3H12.8312C13.0742 3 13.3073 3.10536 13.4792 3.29289C13.6511 3.48043 13.7477 3.73478 13.7477 4V5H8.24859V4C8.24859 3.73478 8.34515 3.48043 8.51703 3.29289ZM5.49906 7V20C5.49906 20.2652 5.59562 20.5196 5.7675 20.7071C5.93938 20.8946 6.17249 21 6.41557 21H15.5807C15.8238 21 16.0569 20.8946 16.2288 20.7071C16.4006 20.5196 16.4972 20.2652 16.4972 20V7H5.49906Z" fill="#929292"/>
</svg>
