<svg width="24" height="24" viewBox="0 0 24 24" fill="none" xmlns="http://www.w3.org/2000/svg">
<rect x="0.5" y="0.5" width="23" height="23" rx="11.5" stroke="#EFEFEF"/>
<path fill-rule="evenodd" clip-rule="evenodd" d="M11.0902 7.9749C9.97697 6.90695 8.172 6.90695 7.05872 7.9749C5.94545 9.04284 5.94545 10.7743 7.05873 11.8423L7.53581 12.2999C7.54361 12.3074 7.55118 12.3151 7.55851 12.3229L12 16.5835L16.4413 12.3231C16.4487 12.3152 16.4563 12.3075 16.4642 12.2999L16.9413 11.8423C18.0545 10.7743 18.0545 9.04284 16.9413 7.9749C15.828 6.90695 14.023 6.90695 12.9098 7.9749L12.4327 8.43256C12.1937 8.66179 11.8063 8.66179 11.5673 8.43256L11.0902 7.9749ZM17.353 13.1075C17.3457 13.1153 17.338 13.1231 17.3302 13.1306L12.4333 17.8281C12.3185 17.9382 12.1628 18 12.0005 18H11.9995C11.8372 18 11.6815 17.9382 11.5667 17.8281L6.66985 13.1306C6.66196 13.1231 6.65433 13.1153 6.64696 13.1075L6.19339 12.6724C4.6022 11.146 4.6022 8.67119 6.19339 7.1448C7.78457 5.6184 10.3644 5.6184 11.9556 7.14479L12 7.18741L12.0444 7.14479C13.6356 5.6184 16.2154 5.6184 17.8066 7.14479C19.3978 8.67119 19.3978 11.146 17.8066 12.6724L17.353 13.1075Z" fill="#6D6E70"/>
</svg>
