<svg width="20" height="22" viewBox="0 0 20 22" fill="none" xmlns="http://www.w3.org/2000/svg">
<path d="M8.1651 9C8.67128 9 9.08162 9.44771 9.08162 10V16C9.08162 16.5523 8.67128 17 8.1651 17C7.65893 17 7.24859 16.5523 7.24859 16V10C7.24859 9.44771 7.65893 9 8.1651 9Z" fill="#929292"/>
<path d="M12.7477 16V10C12.7477 9.44771 12.3373 9 11.8312 9C11.325 9 10.9146 9.44771 10.9146 10V16C10.9146 16.5523 11.325 17 11.8312 17C12.3373 17 12.7477 16.5523 12.7477 16Z" fill="#929292"/>
<path fill-rule="evenodd" clip-rule="evenodd" d="M5.41557 4V3C5.41557 2.20435 5.70525 1.44129 6.22089 0.87868C6.73653 0.31607 7.43588 0 8.1651 0H11.8312C12.5604 0 13.2597 0.31607 13.7754 0.87868C14.291 1.44129 14.5807 2.20435 14.5807 3V4H18.2467C18.7529 4 19.1632 4.44772 19.1632 5C19.1632 5.55228 18.7529 6 18.2467 6H17.3302V19C17.3302 19.7957 17.0405 20.5587 16.5249 21.1213C16.0093 21.6839 15.3099 22 14.5807 22H5.41557C4.68635 22 3.98699 21.6839 3.47135 21.1213C2.95571 20.5587 2.66603 19.7957 2.66603 19V6H1.74952C1.24334 6 0.833008 5.55228 0.833008 5C0.833008 4.44772 1.24334 4 1.74952 4H5.41557ZM7.51703 2.29289C7.68891 2.10536 7.92203 2 8.1651 2H11.8312C12.0742 2 12.3073 2.10536 12.4792 2.29289C12.6511 2.48043 12.7477 2.73478 12.7477 3V4H7.24859V3C7.24859 2.73478 7.34515 2.48043 7.51703 2.29289ZM4.49906 6V19C4.49906 19.2652 4.59562 19.5196 4.7675 19.7071C4.93938 19.8946 5.17249 20 5.41557 20H14.5807C14.8238 20 15.0569 19.8946 15.2288 19.7071C15.4006 19.5196 15.4972 19.2652 15.4972 19V6H4.49906Z" fill="#929292"/>
</svg>
