<svg width="24" height="25" viewBox="0 0 24 25" fill="none" xmlns="http://www.w3.org/2000/svg">
<path fill-rule="evenodd" clip-rule="evenodd" d="M12 8.5C9.79086 8.5 8 10.2909 8 12.5C8 14.7091 9.79086 16.5 12 16.5C14.2091 16.5 16 14.7091 16 12.5C16 10.2909 14.2091 8.5 12 8.5ZM10 12.5C10 11.3954 10.8954 10.5 12 10.5C13.1046 10.5 14 11.3954 14 12.5C14 13.6046 13.1046 14.5 12 14.5C10.8954 14.5 10 13.6046 10 12.5Z" fill="black"/>
<path fill-rule="evenodd" clip-rule="evenodd" d="M20.3149 15.9038L19.4 15.5L20.3191 15.8939C20.3691 15.7774 20.452 15.678 20.5577 15.6081C20.663 15.5383 20.7863 15.5008 20.9125 15.5H21C21.7957 15.5 22.5587 15.1839 23.1213 14.6213C23.6839 14.0587 24 13.2957 24 12.5C24 11.7043 23.6839 10.9413 23.1213 10.3787C22.5587 9.81607 21.7957 9.5 21 9.5H20.8325C20.7063 9.49921 20.583 9.46167 20.4777 9.39195C20.4068 9.34498 20.3461 9.28479 20.2988 9.21507C20.2845 9.14692 20.2631 9.08027 20.2349 9.01624C20.1824 8.89742 20.1668 8.76561 20.19 8.63782C20.2129 8.51142 20.2727 8.39468 20.3619 8.30231L20.4167 8.2475C20.6955 7.96896 20.917 7.63784 21.0679 7.27382C21.2189 6.90963 21.2966 6.51925 21.2966 6.125C21.2966 5.73075 21.2189 5.34037 21.0679 4.97618C20.9171 4.61233 20.6961 4.28174 20.4175 4.00329C20.1389 3.72436 19.808 3.50308 19.4438 3.35211C19.0796 3.20113 18.6892 3.12343 18.295 3.12343C17.9008 3.12343 17.5104 3.20113 17.1462 3.35211C16.782 3.50308 16.4511 3.72436 16.1725 4.00329L16.1177 4.05811C16.0253 4.14728 15.9086 4.20713 15.7822 4.23005C15.6544 4.25322 15.5226 4.23758 15.4038 4.18514L15.3939 4.18086C15.2774 4.13092 15.178 4.04801 15.1081 3.94232C15.0383 3.83704 15.0008 3.71374 15 3.5875V3.5C15 2.70435 14.6839 1.94129 14.1213 1.37868C13.5587 0.816071 12.7956 0.5 12 0.5C11.2044 0.5 10.4413 0.816071 9.87868 1.37868C9.31607 1.94129 9 2.70435 9 3.5V3.6675C8.99921 3.79374 8.96167 3.91704 8.89195 4.02232C8.84498 4.09323 8.78479 4.1539 8.71507 4.20122C8.64693 4.21549 8.58027 4.23687 8.51624 4.26514C8.39742 4.31758 8.26561 4.33322 8.13782 4.31005C8.01142 4.28713 7.89468 4.22728 7.80231 4.1381L7.7475 4.08329C7.46888 3.80436 7.13802 3.58308 6.77382 3.43211C6.40963 3.28113 6.01925 3.20343 5.625 3.20343C5.23075 3.20343 4.84037 3.28113 4.47618 3.43211C4.11216 3.58301 3.78143 3.80415 3.50289 4.08289C3.22415 4.36143 3.00301 4.69216 2.85211 5.05618C2.70113 5.42037 2.62343 5.81075 2.62343 6.205C2.62343 6.59925 2.70113 6.98963 2.85211 7.35382C3.00308 7.71802 3.22436 8.04888 3.50329 8.3275L3.5581 8.38231C3.64728 8.47468 3.70713 8.59142 3.73005 8.71782C3.75322 8.84561 3.73758 8.97742 3.68514 9.09624C3.67663 9.11551 3.66874 9.13505 3.66146 9.15482C3.61644 9.27723 3.53564 9.38327 3.42955 9.45914C3.32591 9.53327 3.20283 9.57526 3.07564 9.58H3C2.20435 9.58 1.44129 9.89607 0.87868 10.4587C0.316071 11.0213 0 11.7844 0 12.58C0 13.3756 0.316071 14.1387 0.87868 14.7013C1.44129 15.2639 2.20435 15.58 3 15.58H3.1675C3.29374 15.5808 3.41704 15.6183 3.52232 15.6881C3.62801 15.758 3.71092 15.8574 3.76086 15.9739L3.76514 15.9838C3.81758 16.1026 3.83322 16.2344 3.81005 16.3622C3.78713 16.4886 3.72728 16.6053 3.63811 16.6977L3.58329 16.7525C3.30436 17.0311 3.08308 17.362 2.93211 17.7262C2.78113 18.0904 2.70343 18.4808 2.70343 18.875C2.70343 19.2692 2.78113 19.6596 2.93211 20.0238C3.08308 20.388 3.30436 20.7189 3.58329 20.9975C3.86174 21.2761 4.19233 21.4971 4.55618 21.6479C4.92037 21.7989 5.31075 21.8766 5.705 21.8766C6.09925 21.8766 6.48963 21.7989 6.85382 21.6479C7.21784 21.497 7.54857 21.2759 7.82712 20.9971L7.8823 20.9419C7.97467 20.8527 8.09142 20.7929 8.21782 20.77C8.34561 20.7468 8.47742 20.7624 8.59624 20.8149C8.61551 20.8234 8.63505 20.8313 8.65482 20.8385C8.77723 20.8836 8.88326 20.9644 8.95914 21.0704C9.03327 21.1741 9.07526 21.2972 9.08 21.4244V21.5C9.08 22.2957 9.39607 23.0587 9.95868 23.6213C10.5213 24.1839 11.2843 24.5 12.08 24.5C12.8757 24.5 13.6387 24.1839 14.2013 23.6213C14.7639 23.0587 15.08 22.2957 15.08 21.5V21.3325C15.0808 21.2063 15.1183 21.083 15.1881 20.9777C15.258 20.872 15.3574 20.7891 15.4739 20.7391L15.4838 20.7349C15.6026 20.6824 15.7344 20.6668 15.8622 20.69C15.9886 20.7129 16.1053 20.7727 16.1977 20.8619L16.2525 20.9167C16.531 21.1955 16.8622 21.417 17.2262 21.5679C17.5904 21.7189 17.9808 21.7966 18.375 21.7966C18.7692 21.7966 19.1596 21.7189 19.5238 21.5679C19.8878 21.417 20.2186 21.1959 20.4971 20.9171C20.7759 20.6386 20.997 20.3078 21.1479 19.9438C21.2989 19.5796 21.3766 19.1892 21.3766 18.795C21.3766 18.4008 21.2989 18.0104 21.1479 17.6462C20.997 17.2822 20.7758 16.9514 20.4971 16.6729L20.4419 16.6177C20.3527 16.5253 20.2929 16.4086 20.27 16.2822C20.2468 16.1544 20.2624 16.0226 20.3149 15.9038ZM11.2929 2.79289C11.4804 2.60536 11.7348 2.5 12 2.5C12.2652 2.5 12.5196 2.60536 12.7071 2.79289C12.8946 2.98043 13 3.23478 13 3.5V3.59L13 3.59399C13.0021 4.1108 13.1552 4.61572 13.4406 5.04661C13.7249 5.47601 14.1282 5.8132 14.6011 6.01701C15.0843 6.22908 15.6198 6.29211 16.139 6.19796C16.66 6.10349 17.1407 5.85512 17.5193 5.48486L17.5271 5.4771L17.5871 5.4171C17.68 5.32413 17.7907 5.24998 17.9121 5.19965C18.0335 5.14933 18.1636 5.12343 18.295 5.12343C18.4264 5.12343 18.5565 5.14933 18.6779 5.19965C18.7993 5.24998 18.9096 5.32374 19.0025 5.41671L19.0033 5.4175C19.0963 5.51037 19.17 5.62066 19.2203 5.74206C19.2707 5.86346 19.2966 5.99359 19.2966 6.125C19.2966 6.25641 19.2707 6.38654 19.2203 6.50794C19.17 6.62934 19.0963 6.73963 19.0033 6.8325L18.9429 6.8929L18.9351 6.90073C18.5649 7.27925 18.3165 7.76 18.222 8.281C18.14 8.73332 18.1773 9.19798 18.3284 9.62961C18.3403 9.72042 18.3646 9.80938 18.4009 9.89393C18.6045 10.369 18.9425 10.7741 19.3734 11.0594C19.8043 11.3448 20.3092 11.4979 20.826 11.5L20.83 11.5H21C21.2652 11.5 21.5196 11.6054 21.7071 11.7929C21.8946 11.9804 22 12.2348 22 12.5C22 12.7652 21.8946 13.0196 21.7071 13.2071C21.5196 13.3946 21.2652 13.5 21 13.5L20.91 13.5L20.906 13.5C20.3892 13.5021 19.8843 13.6552 19.4534 13.9406C19.024 14.225 18.6867 14.6283 18.4829 15.1012C18.2709 15.5843 18.2079 16.1198 18.302 16.639C18.3965 17.16 18.6449 17.6407 19.0151 18.0193L19.0229 18.0271L19.0829 18.0871C19.1759 18.18 19.25 18.2907 19.3003 18.4121C19.3507 18.5335 19.3766 18.6636 19.3766 18.795C19.3766 18.9264 19.3507 19.0565 19.3003 19.1779C19.25 19.2993 19.1763 19.4096 19.0833 19.5025L19.0825 19.5033C18.9896 19.5963 18.8793 19.67 18.7579 19.7203C18.6365 19.7707 18.5064 19.7966 18.375 19.7966C18.2436 19.7966 18.1135 19.7707 17.9921 19.7203C17.8707 19.67 17.7604 19.5963 17.6675 19.5033L17.6071 19.4429L17.5993 19.4351C17.2207 19.0649 16.74 18.8165 16.219 18.722C15.6998 18.6279 15.1643 18.6909 14.6812 18.9029C14.2083 19.1067 13.805 19.444 13.5206 19.8734C13.2352 20.3043 13.0821 20.8092 13.08 21.326L13.08 21.33V21.5C13.08 21.7652 12.9746 22.0196 12.7871 22.2071C12.5996 22.3946 12.3452 22.5 12.08 22.5C11.8148 22.5 11.5604 22.3946 11.3729 22.2071C11.1854 22.0196 11.08 21.7652 11.08 21.5V21.41L11.0797 21.3866C11.0673 20.855 10.8952 20.3395 10.5859 19.907C10.2827 19.483 9.86132 19.1581 9.37477 18.9725C8.89796 18.7689 8.37163 18.7095 7.861 18.802C7.34 18.8965 6.85925 19.1449 6.48073 19.5151L6.47288 19.5229L6.41288 19.5829C6.32001 19.6759 6.20934 19.75 6.08794 19.8003C5.96654 19.8507 5.83641 19.8766 5.705 19.8766C5.57359 19.8766 5.44346 19.8507 5.32206 19.8003C5.20066 19.75 5.09037 19.6763 4.9975 19.5833L4.99671 19.5825C4.90374 19.4896 4.82998 19.3793 4.77965 19.2579C4.72933 19.1365 4.70343 19.0064 4.70343 18.875C4.70343 18.7436 4.72933 18.6135 4.77965 18.4921C4.82998 18.3707 4.90374 18.2604 4.99671 18.1675L5.0571 18.1071L5.06486 18.0993C5.43512 17.7207 5.68349 17.24 5.77796 16.719C5.87211 16.1998 5.80908 15.6643 5.59701 15.1811C5.3932 14.7082 5.05601 14.3049 4.62661 14.0206C4.19572 13.7352 3.6908 13.5821 3.17399 13.58L3.17 13.58H3C2.73478 13.58 2.48043 13.4746 2.29289 13.2871C2.10536 13.0996 2 12.8452 2 12.58C2 12.3148 2.10536 12.0604 2.29289 11.8729C2.48043 11.6854 2.73478 11.58 3 11.58H3.09L3.11338 11.5797C3.64498 11.5673 4.16054 11.3952 4.59305 11.0859C5.01698 10.7827 5.34189 10.3613 5.52745 9.87478C5.73113 9.39797 5.79055 8.87163 5.69796 8.361C5.60349 7.84 5.35512 7.35925 4.98486 6.98073L4.97711 6.97289L4.91711 6.91289C4.82413 6.82002 4.74998 6.70934 4.69965 6.58794C4.64933 6.46654 4.62343 6.33642 4.62343 6.205C4.62343 6.07358 4.64933 5.94346 4.69965 5.82206C4.74998 5.70066 4.82374 5.59037 4.91671 5.4975L4.9175 5.49671C5.01037 5.40374 5.12066 5.32998 5.24206 5.27965C5.36346 5.22933 5.49358 5.20343 5.625 5.20343C5.75642 5.20343 5.88654 5.22933 6.00794 5.27965C6.12934 5.32998 6.23963 5.40374 6.3325 5.49671L6.39289 5.55711L6.40073 5.56486C6.77925 5.93512 7.26 6.18349 7.781 6.27796C8.23333 6.35998 8.69798 6.32272 9.12961 6.17157C9.22042 6.15969 9.30938 6.13538 9.39393 6.09914C9.86895 5.89555 10.2741 5.5575 10.5594 5.12661C10.8448 4.69572 10.9979 4.1908 11 3.67399L11 3.67V3.5C11 3.23478 11.1054 2.98043 11.2929 2.79289Z" fill="black"/>
</svg>
