<svg width="20" height="23" viewBox="0 0 20 23" fill="none" xmlns="http://www.w3.org/2000/svg">
<path fill-rule="evenodd" clip-rule="evenodd" d="M10 0.501953C9.47422 0.501953 8.95768 0.640138 8.50214 0.902641L5.30633 2.72882C5.09619 2.77039 4.90017 2.87894 4.75258 3.04525L1.50386 4.90166L1.5 4.90388C1.13 5.1175 0.810899 5.40709 0.563037 5.75232C0.502707 5.81267 0.44917 5.8818 0.404412 5.95918C0.365863 6.02582 0.335862 6.09505 0.31407 6.16562C0.108342 6.57911 0.000475907 7.03535 0 7.49888V15.5009C0.000540137 16.027 0.139415 16.5437 0.402693 16.9992C0.665971 17.4547 1.04439 17.8329 1.5 18.0959L1.50386 18.0981L8.5 22.0959L8.50185 22.097C8.81905 22.2798 9.16584 22.4024 9.52474 22.46C9.66611 22.5365 9.82797 22.5799 10 22.5799C10.172 22.5799 10.3339 22.5365 10.4753 22.46C10.8342 22.4024 11.181 22.2798 11.4982 22.097L11.5 22.0959L18.4961 18.0981L18.5 18.0959C18.9556 17.8329 19.334 17.4547 19.5973 16.9992C19.8606 16.5437 19.9995 16.027 20 15.5009V7.49888C19.9995 7.03542 19.8917 6.57926 19.686 6.16582C19.6642 6.09518 19.6342 6.02588 19.5956 5.95918C19.5508 5.88175 19.4973 5.81257 19.4369 5.75218C19.189 5.40701 18.87 5.11747 18.5 4.90387L11.5 0.903877L11.4979 0.902673C11.0424 0.640149 10.5258 0.501953 10 0.501953ZM11 20.0782L17.5 16.3639L17.5016 16.363C17.6527 16.2753 17.7783 16.1496 17.8658 15.9983C17.9535 15.8465 17.9998 15.6742 18 15.4989V8.03745L11 12.0867V20.0782ZM9 12.0867L2 8.03743V15.4993C2.00026 15.6745 2.04654 15.8466 2.13423 15.9983C2.22169 16.1496 2.34726 16.2753 2.49842 16.363L2.5 16.3639L9 20.0782V12.0867ZM10.5039 2.63815L16.961 6.32794L14.5052 7.74855L7.5609 3.74399L9.49614 2.63815L9.5 2.63593C9.65202 2.54816 9.82446 2.50195 10 2.50195C10.1755 2.50195 10.348 2.54816 10.5 2.63593L10.5039 2.63815ZM10 10.3546L12.5065 8.9047L5.54999 4.89308L3.03899 6.32793L10 10.3546Z" fill="black"/>
</svg>
