<svg width="20" height="21" viewBox="0 0 20 21" fill="none" xmlns="http://www.w3.org/2000/svg">
<path fill-rule="evenodd" clip-rule="evenodd" d="M3 2.5C2.73478 2.5 2.48043 2.60536 2.29289 2.79289C2.10536 2.98043 2 3.23478 2 3.5V17.5C2 17.7652 2.10536 18.0196 2.29289 18.2071C2.48043 18.3946 2.73478 18.5 3 18.5H7C7.55228 18.5 8 18.9477 8 19.5C8 20.0523 7.55228 20.5 7 20.5H3C2.20435 20.5 1.44129 20.1839 0.87868 19.6213C0.31607 19.0587 0 18.2957 0 17.5V3.5C0 2.70435 0.31607 1.94129 0.87868 1.37868C1.44129 0.81607 2.20435 0.5 3 0.5H7C7.55228 0.5 8 0.947715 8 1.5C8 2.05228 7.55228 2.5 7 2.5H3ZM13.2929 4.79289C13.6834 4.40237 14.3166 4.40237 14.7071 4.79289L19.7071 9.79289C20.0976 10.1834 20.0976 10.8166 19.7071 11.2071L14.7071 16.2071C14.3166 16.5976 13.6834 16.5976 13.2929 16.2071C12.9024 15.8166 12.9024 15.1834 13.2929 14.7929L16.5858 11.5H7C6.44772 11.5 6 11.0523 6 10.5C6 9.94771 6.44772 9.5 7 9.5H16.5858L13.2929 6.20711C12.9024 5.81658 12.9024 5.18342 13.2929 4.79289Z" fill="black"/>
</svg>
