<svg width="20" height="25" viewBox="0 0 20 25" fill="none" xmlns="http://www.w3.org/2000/svg">
<path fill-rule="evenodd" clip-rule="evenodd" d="M10 6.5C7.79086 6.5 6 8.29086 6 10.5C6 12.7091 7.79086 14.5 10 14.5C12.2091 14.5 14 12.7091 14 10.5C14 8.29086 12.2091 6.5 10 6.5ZM8 10.5C8 9.39543 8.89543 8.5 10 8.5C11.1046 8.5 12 9.39543 12 10.5C12 11.6046 11.1046 12.5 10 12.5C8.89543 12.5 8 11.6046 8 10.5Z" fill="black"/>
<path fill-rule="evenodd" clip-rule="evenodd" d="M9.44476 24.3317C9.44505 24.3319 9.4453 24.3321 10 23.5L9.44476 24.3317C9.78066 24.5556 10.2188 24.556 10.5547 24.3321L10 23.5C10.5547 24.3321 10.5544 24.3322 10.5547 24.3321L10.5581 24.3298L10.5648 24.3253L10.5877 24.3098C10.6072 24.2966 10.6349 24.2776 10.6704 24.253C10.7415 24.2038 10.8435 24.1321 10.9722 24.0392C11.2295 23.8534 11.5936 23.5822 12.0292 23.2354C12.8987 22.543 14.0606 21.5428 15.226 20.3127C17.5157 17.8958 20 14.4019 20 10.5C20 7.84784 18.9464 5.3043 17.0711 3.42893C15.1957 1.55357 12.6522 0.5 10 0.5C7.34784 0.5 4.8043 1.55357 2.92893 3.42893C1.05357 5.3043 0 7.84784 0 10.5C0 14.4019 2.48426 17.8958 4.77405 20.3127C5.93939 21.5428 7.10133 22.543 7.97082 23.2354C8.40636 23.5822 8.77055 23.8534 9.02779 24.0392C9.15646 24.1321 9.25853 24.2038 9.32956 24.253C9.36508 24.2776 9.39285 24.2966 9.41232 24.3098L9.43524 24.3253L9.4419 24.3298L9.44476 24.3317ZM4.34315 4.84315C5.84344 3.34285 7.87827 2.5 10 2.5C12.1217 2.5 14.1566 3.34285 15.6569 4.84315C17.1571 6.34344 18 8.37827 18 10.5C18 13.5981 15.9843 16.6042 13.774 18.9373C12.6894 20.0822 11.6013 21.0195 10.7833 21.6708C10.4789 21.9133 10.213 22.1152 10 22.2726C9.78702 22.1152 9.52111 21.9133 9.21668 21.6708C8.39867 21.0195 7.31061 20.0822 6.22595 18.9373C4.01574 16.6042 2 13.5981 2 10.5C2 8.37827 2.84285 6.34344 4.34315 4.84315Z" fill="black"/>
</svg>
