<svg width="58" height="62" viewBox="0 0 58 62" fill="none" xmlns="http://www.w3.org/2000/svg">
<path d="M46.7334 6.60009L48.3601 16.8934L57.7201 21.6668L53.0001 31.0001L57.7468 40.3334L48.3068 45.1068L46.6801 55.4001L36.3068 53.7734L28.9201 61.1334L21.5068 53.6668L11.2134 55.3734L9.56009 45.0001L0.253418 40.2534L5.00008 30.9201L0.280085 21.6668L9.64008 16.8401L11.2668 6.62675L21.5868 8.33342L29.0001 0.840088L36.3868 8.22675L46.7334 6.60009ZM22.3334 17.6668C21.2726 17.6668 20.2551 18.0882 19.505 18.8383C18.7548 19.5885 18.3334 20.6059 18.3334 21.6668C18.3334 22.7276 18.7548 23.745 19.505 24.4952C20.2551 25.2453 21.2726 25.6668 22.3334 25.6668C23.3943 25.6668 24.4117 25.2453 25.1618 24.4952C25.912 23.745 26.3334 22.7276 26.3334 21.6668C26.3334 20.6059 25.912 19.5885 25.1618 18.8383C24.4117 18.0882 23.3943 17.6668 22.3334 17.6668ZM35.6668 36.3334C34.6059 36.3334 33.5885 36.7548 32.8383 37.505C32.0882 38.2551 31.6668 39.2726 31.6668 40.3334C31.6668 41.3943 32.0882 42.4117 32.8383 43.1618C33.5885 43.912 34.6059 44.3334 35.6668 44.3334C36.7276 44.3334 37.745 43.912 38.4952 43.1618C39.2453 42.4117 39.6668 41.3943 39.6668 40.3334C39.6668 39.2726 39.2453 38.2551 38.4952 37.505C37.745 36.7548 36.7276 36.3334 35.6668 36.3334ZM19.4268 44.3334L42.3334 21.4268L38.5734 17.6668L15.6668 40.5734L19.4268 44.3334Z" fill="#F74545"/>
</svg>
