<svg width="20" height="20" viewBox="0 0 20 20" fill="none" xmlns="http://www.w3.org/2000/svg">
<rect x="0.5" y="0.5" width="19" height="19" rx="9.5" stroke="#008BFF"/>
<path d="M14.4711 6.47157C14.7314 6.21122 14.7314 5.78911 14.4711 5.52876C14.2107 5.26841 13.7886 5.26841 13.5283 5.52876L9.99967 9.05735L6.47108 5.52876C6.21073 5.26841 5.78862 5.26841 5.52827 5.52876C5.26792 5.78911 5.26792 6.21122 5.52827 6.47157L9.05687 10.0002L5.52827 13.5288C5.26792 13.7891 5.26792 14.2112 5.52827 14.4716C5.78862 14.7319 6.21073 14.7319 6.47108 14.4716L9.99967 10.943L13.5283 14.4716C13.7886 14.7319 14.2107 14.7319 14.4711 14.4716C14.7314 14.2112 14.7314 13.7891 14.4711 13.5288L10.9425 10.0002L14.4711 6.47157Z" fill="#008BFF"/>
</svg>
