<svg width="11" height="11" viewBox="0 0 11 11" fill="none" xmlns="http://www.w3.org/2000/svg">
<path d="M9.97157 1.97145C10.2319 1.7111 10.2319 1.28899 9.97157 1.02864C9.71122 0.768287 9.28911 0.768287 9.02876 1.02864L5.50016 4.55723L1.97157 1.02864C1.71122 0.768287 1.28911 0.768287 1.02876 1.02864C0.768409 1.28899 0.768409 1.7111 1.02876 1.97145L4.55735 5.50004L1.02876 9.02864C0.768409 9.28899 0.768409 9.7111 1.02876 9.97145C1.28911 10.2318 1.71122 10.2318 1.97157 9.97145L5.50016 6.44285L9.02876 9.97145C9.28911 10.2318 9.71122 10.2318 9.97157 9.97145C10.2319 9.7111 10.2319 9.28899 9.97157 9.02864L6.44297 5.50004L9.97157 1.97145Z" fill="#535353"/>
</svg>
