<svg width="164" height="16" viewBox="0 0 164 16" fill="none" xmlns="http://www.w3.org/2000/svg">
<path d="M0.6 12.5V1.476H6.456L6.28 2.692H2.12V6.452H5.72V7.652H2.12V12.5H0.6ZM13.2625 10.532C13.2625 11.268 13.5345 11.508 13.9665 11.668L13.6305 12.692C12.7825 12.596 12.2385 12.26 11.9825 11.428C11.3905 12.308 10.4945 12.692 9.4705 12.692C7.7905 12.692 6.7825 11.652 6.7825 10.148C6.7825 8.34 8.1425 7.364 10.4945 7.364H11.7905V6.74C11.7905 5.524 11.1985 5.076 10.0305 5.076C9.4065 5.076 8.6225 5.236 7.7585 5.524L7.3905 4.452C8.4305 4.068 9.3585 3.876 10.3025 3.876C12.3345 3.876 13.2625 4.916 13.2625 6.676V10.532ZM9.8065 11.588C10.6705 11.588 11.3105 11.156 11.7905 10.276V8.34H10.6865C9.1345 8.34 8.3505 8.916 8.3505 10.068C8.3505 11.06 8.8465 11.588 9.8065 11.588ZM19.3576 3.876C20.3496 3.876 21.1496 4.132 21.9336 4.788L21.2296 5.716C20.6536 5.3 20.1256 5.092 19.4216 5.092C18.0936 5.092 17.2616 6.132 17.2616 8.324C17.2616 10.532 18.0936 11.444 19.4216 11.444C20.1256 11.444 20.6216 11.22 21.2616 10.804L21.9336 11.764C21.1816 12.372 20.3336 12.692 19.3576 12.692C17.0856 12.692 15.6776 11.076 15.6776 8.356C15.6776 5.668 17.0696 3.876 19.3576 3.876ZM30.0443 8.036C30.0443 8.324 30.0283 8.596 30.0123 8.788H24.6363C24.7803 10.74 25.6923 11.492 26.9083 11.492C27.7403 11.492 28.3643 11.268 29.1003 10.756L29.7403 11.636C28.9083 12.292 27.9643 12.692 26.7963 12.692C24.4443 12.692 23.0683 11.044 23.0683 8.372C23.0683 5.748 24.3963 3.876 26.5723 3.876C28.8443 3.876 30.0443 5.46 30.0443 8.036ZM28.5883 7.7V7.604C28.5883 5.956 27.9323 5.044 26.6043 5.044C25.4843 5.044 24.7483 5.828 24.6363 7.7H28.5883ZM36.1874 3.876C38.0914 3.876 39.3234 5.46 39.3234 8.276C39.3234 10.916 38.0594 12.692 36.0114 12.692C35.0834 12.692 34.3474 12.276 33.7714 11.572L33.6274 12.5H32.3314V0.676L33.8034 0.499999V5.124C34.3794 4.34 35.1634 3.876 36.1874 3.876ZM35.6594 11.524C36.8914 11.524 37.7394 10.58 37.7394 8.276C37.7394 5.876 36.9554 5.044 35.7714 5.044C34.8434 5.044 34.2354 5.684 33.8034 6.356V10.388C34.2354 11.06 34.9074 11.524 35.6594 11.524ZM44.9224 3.876C47.3224 3.876 48.6664 5.604 48.6664 8.276C48.6664 10.884 47.2904 12.692 44.9064 12.692C42.5064 12.692 41.1464 10.964 41.1464 8.292C41.1464 5.684 42.5224 3.876 44.9224 3.876ZM44.9224 5.06C43.5144 5.06 42.7304 6.084 42.7304 8.292C42.7304 10.484 43.4984 11.508 44.9064 11.508C46.3144 11.508 47.0824 10.484 47.0824 8.276C47.0824 6.084 46.3144 5.06 44.9224 5.06ZM54.2661 3.876C56.6661 3.876 58.0101 5.604 58.0101 8.276C58.0101 10.884 56.6341 12.692 54.2501 12.692C51.8501 12.692 50.4901 10.964 50.4901 8.292C50.4901 5.684 51.8661 3.876 54.2661 3.876ZM54.2661 5.06C52.8581 5.06 52.0741 6.084 52.0741 8.292C52.0741 10.484 52.8421 11.508 54.2501 11.508C55.6581 11.508 56.4261 10.484 56.4261 8.276C56.4261 6.084 55.6581 5.06 54.2661 5.06ZM61.8659 0.499999V12.5H60.3939V0.676L61.8659 0.499999ZM66.7139 4.068L63.6099 7.796L67.0659 12.5H65.3059L61.9619 7.892L65.0659 4.068H66.7139ZM72.2569 8.116V6.868H76.7849V8.116H72.2569ZM78.742 7.844C78.742 5.524 80.022 3.876 82.182 3.876C84.342 3.876 85.59 5.444 85.59 7.844C85.59 9.812 85.078 11.332 84.582 12.5H83.126C83.734 10.884 84.102 9.412 84.102 7.844C84.102 5.924 83.334 5.06 82.182 5.06C81.014 5.06 80.23 5.924 80.23 7.844C80.23 9.412 80.598 10.884 81.206 12.5H79.75C79.254 11.332 78.742 9.812 78.742 7.844ZM95.7781 3.876C97.6821 3.876 98.8981 5.22 98.8981 7.892C98.8981 9.844 98.3861 11.332 97.9061 12.5H96.4341C97.1061 10.708 97.4101 9.428 97.4101 7.908C97.4101 5.732 96.6741 5.06 95.6501 5.06C95.0101 5.06 94.4501 5.284 93.9381 5.796C94.2261 6.468 94.3861 7.3 94.3861 8.276C94.3861 10.964 93.1221 12.692 90.9781 12.692C88.8181 12.692 87.5701 11.044 87.5701 8.292C87.5701 5.604 88.8341 3.876 90.9941 3.876C92.0181 3.876 92.8181 4.244 93.3941 4.916C94.0181 4.244 94.8341 3.876 95.7781 3.876ZM90.9781 11.508C92.1461 11.508 92.8341 10.484 92.8341 8.276C92.8341 6.084 92.1461 5.06 90.9941 5.06C89.8261 5.06 89.1221 6.084 89.1221 8.292C89.1221 10.484 89.8101 11.508 90.9781 11.508ZM109.981 0.452C111.053 0.452 112.237 1.108 112.237 2.74V8.644C112.237 11.108 111.101 12.724 108.797 12.724C106.429 12.724 105.245 11.108 105.245 8.548C105.245 6.388 106.381 4.388 108.493 4.388C109.485 4.388 110.205 4.868 110.765 5.46V2.836C110.765 1.988 110.381 1.604 109.709 1.604C109.133 1.604 108.653 1.94 108.653 2.692V3.38L107.245 3.476V2.852C107.245 2.036 106.925 1.636 106.317 1.636C106.045 1.636 105.757 1.7 105.325 1.892L104.877 0.851999C105.277 0.612 105.709 0.452 106.317 0.452C106.957 0.452 107.725 0.66 107.981 1.78C108.333 0.66 109.277 0.452 109.981 0.452ZM108.797 11.54C110.157 11.54 110.765 10.372 110.765 8.548V6.692C110.237 6.02 109.613 5.572 108.749 5.572C107.565 5.572 106.829 6.676 106.829 8.548C106.829 10.548 107.437 11.54 108.797 11.54ZM117.507 3.876C119.331 3.876 120.691 5.092 120.691 7.044V12.436C120.691 14.468 119.491 15.956 117.395 15.956C115.059 15.956 114.051 14.372 114.051 12.756C114.051 11.956 114.291 11.22 114.579 10.644L115.843 10.98C115.667 11.492 115.539 12.052 115.539 12.756C115.539 13.956 116.179 14.772 117.395 14.772C118.739 14.772 119.219 13.7 119.219 12.26V7.14C119.219 5.972 118.755 5.06 117.507 5.06C116.243 5.06 115.779 5.908 115.779 6.74C115.779 7.252 115.875 7.668 115.987 8.02L114.659 8.292C114.435 7.828 114.275 7.252 114.275 6.724C114.275 5.012 115.715 3.876 117.507 3.876ZM122.968 8.66V0.676L124.44 0.452V8.548C124.44 10.468 124.968 11.572 126.44 11.572C127.736 11.572 128.376 10.564 128.376 9.092C128.376 6.724 126.568 6.164 126.568 4.068H128.04C128.04 5.7 129.896 6.308 129.896 9.092C129.896 11.06 128.776 12.724 126.424 12.724C124.184 12.724 122.968 11.348 122.968 8.66ZM136.112 9.188C137.328 9.396 138.512 10.404 138.512 12.436C138.512 14.372 137.2 15.956 134.944 15.956C132.56 15.956 131.488 14.484 131.488 12.852C131.488 12.148 131.68 11.604 131.968 11.06L133.216 11.396C133.088 11.796 132.976 12.244 132.976 12.82C132.976 13.988 133.632 14.772 134.944 14.772C136.448 14.772 136.96 13.652 136.96 12.26C136.96 10.964 136.352 9.86 134.912 9.86H134.24L134.336 8.676H134.944C135.84 8.676 136.672 8.068 136.672 6.82C136.672 5.844 136.112 5.06 134.896 5.06C133.68 5.06 133.104 5.812 133.104 6.74C133.104 7.092 133.168 7.412 133.248 7.732L131.92 7.972C131.728 7.556 131.616 7.092 131.616 6.644C131.616 5.044 132.992 3.876 134.896 3.876C136.848 3.876 138.192 5.124 138.192 6.724C138.192 8.1 137.312 8.9 136.112 9.188ZM151.744 3.876C153.296 3.876 154.704 5.06 154.704 7.572C154.704 9.3 154.432 10.452 154 11.412L152.72 11.076C153.056 9.956 153.216 8.996 153.216 7.588C153.216 5.572 152.416 5.06 151.632 5.06C150.88 5.06 150.288 5.572 150.288 6.772V9.78L148.88 9.908V6.772C148.88 5.572 148.304 5.06 147.52 5.06C146.736 5.06 146.144 5.572 146.144 6.772V9.748L144.736 9.908V6.772C144.736 5.572 144.176 5.06 143.376 5.06C142.368 5.06 141.808 6.004 141.808 7.78C141.808 11.22 144.464 12.084 146.432 12.74C147.712 13.172 149.776 13.86 150.704 15.172L149.776 15.956C148.496 14.532 147.28 14.132 145.968 14.132C144.784 14.132 143.84 14.5 142.912 15.044L142.48 13.716C143.296 13.348 143.984 13.204 145.04 13.204C142.576 12.676 140.336 11.124 140.336 7.732C140.336 4.98 141.696 3.876 143.216 3.876C144.384 3.876 145.168 4.452 145.456 5.668C145.664 4.468 146.4 3.876 147.488 3.876C148.688 3.876 149.312 4.452 149.6 5.668C149.808 4.468 150.624 3.876 151.744 3.876ZM160.327 4.068C160.327 5.892 163.047 7.028 163.047 9.652C163.047 11.556 161.591 12.724 159.719 12.724C157.495 12.724 156.423 11.268 156.423 9.796C156.423 9.156 156.599 8.58 156.871 8.084L158.119 8.42C157.991 8.804 157.911 9.252 157.911 9.748C157.911 10.82 158.583 11.54 159.719 11.54C160.967 11.54 161.495 10.692 161.495 9.62C161.495 7.38 158.855 6.724 158.855 4.068H160.327Z" fill="#4F61C1"/>
</svg>
