<svg width="147" height="16" viewBox="0 0 147 16" fill="none" xmlns="http://www.w3.org/2000/svg">
<path d="M5.664 1.284C7.12 1.284 8.032 1.716 8.976 2.5L8.08 3.428C7.312 2.804 6.656 2.532 5.664 2.532C4.08 2.532 2.496 3.732 2.496 6.98C2.496 10.148 3.568 11.444 5.504 11.444C6.24 11.444 6.976 11.3 7.6 10.948V7.62H5.648L5.472 6.388H9.104V11.716C8.064 12.308 6.912 12.692 5.504 12.692C2.656 12.692 0.88 10.788 0.88 6.98C0.88 3.268 3.12 1.284 5.664 1.284ZM14.7818 3.876C17.1818 3.876 18.5258 5.604 18.5258 8.276C18.5258 10.884 17.1498 12.692 14.7658 12.692C12.3658 12.692 11.0058 10.964 11.0058 8.292C11.0058 5.684 12.3818 3.876 14.7818 3.876ZM14.7818 5.06C13.3738 5.06 12.5898 6.084 12.5898 8.292C12.5898 10.484 13.3578 11.508 14.7658 11.508C16.1738 11.508 16.9418 10.484 16.9418 8.276C16.9418 6.084 16.1738 5.06 14.7818 5.06ZM24.1255 3.876C26.5255 3.876 27.8695 5.604 27.8695 8.276C27.8695 10.884 26.4935 12.692 24.1095 12.692C21.7095 12.692 20.3495 10.964 20.3495 8.292C20.3495 5.684 21.7255 3.876 24.1255 3.876ZM24.1255 5.06C22.7175 5.06 21.9335 6.084 21.9335 8.292C21.9335 10.484 22.7015 11.508 24.1095 11.508C25.5175 11.508 26.2855 10.484 26.2855 8.276C26.2855 6.084 25.5175 5.06 24.1255 5.06ZM36.6693 3.124L37.1013 4.452C36.3973 4.676 35.5973 4.708 34.6373 4.708C35.6293 5.156 36.1253 5.86 36.1253 6.836C36.1253 8.5 34.9253 9.7 32.9093 9.7C32.5253 9.7 32.1893 9.652 31.8373 9.54C31.5973 9.716 31.4213 10.02 31.4213 10.324C31.4213 10.708 31.6613 11.012 32.5253 11.012H33.8693C35.5973 11.012 36.7493 12.004 36.7493 13.348C36.7493 14.98 35.4053 15.908 32.7973 15.908C30.0453 15.908 29.1813 15.06 29.1813 13.348H30.5093C30.5093 14.308 30.9413 14.756 32.7973 14.756C34.6213 14.756 35.2613 14.292 35.2613 13.444C35.2613 12.644 34.6213 12.244 33.5653 12.244H32.2373C30.7333 12.244 30.0613 11.492 30.0613 10.644C30.0613 10.1 30.3813 9.556 30.9893 9.156C30.0133 8.644 29.5653 7.908 29.5653 6.82C29.5653 5.092 30.9573 3.876 32.8133 3.876C34.9093 3.924 35.6773 3.572 36.6693 3.124ZM32.8133 4.932C31.6773 4.932 31.0693 5.716 31.0693 6.82C31.0693 7.94 31.6933 8.724 32.8453 8.724C33.9973 8.724 34.6213 8.02 34.6213 6.804C34.6213 5.572 34.0133 4.932 32.8133 4.932ZM40.2298 12.692C39.1578 12.692 38.4698 12.036 38.4698 10.836V0.676L39.9418 0.499999V10.804C39.9418 11.252 40.0858 11.476 40.4698 11.476C40.6778 11.476 40.8538 11.444 41.0138 11.38L41.3978 12.404C41.0778 12.58 40.6618 12.692 40.2298 12.692ZM49.6068 8.036C49.6068 8.324 49.5908 8.596 49.5748 8.788H44.1988C44.3428 10.74 45.2548 11.492 46.4708 11.492C47.3028 11.492 47.9268 11.268 48.6628 10.756L49.3028 11.636C48.4708 12.292 47.5268 12.692 46.3588 12.692C44.0068 12.692 42.6308 11.044 42.6308 8.372C42.6308 5.748 43.9588 3.876 46.1348 3.876C48.4068 3.876 49.6068 5.46 49.6068 8.036ZM48.1508 7.7V7.604C48.1508 5.956 47.4948 5.044 46.1668 5.044C45.0468 5.044 44.3108 5.828 44.1988 7.7H48.1508ZM55.6163 8.116V6.868H60.1443V8.116H55.6163ZM62.1014 7.844C62.1014 5.524 63.3814 3.876 65.5414 3.876C67.7014 3.876 68.9494 5.444 68.9494 7.844C68.9494 9.812 68.4374 11.332 67.9414 12.5H66.4854C67.0934 10.884 67.4614 9.412 67.4614 7.844C67.4614 5.924 66.6934 5.06 65.5414 5.06C64.3734 5.06 63.5894 5.924 63.5894 7.844C63.5894 9.412 63.9574 10.884 64.5654 12.5H63.1094C62.6134 11.332 62.1014 9.812 62.1014 7.844ZM79.1375 3.876C81.0415 3.876 82.2575 5.22 82.2575 7.892C82.2575 9.844 81.7455 11.332 81.2655 12.5H79.7935C80.4655 10.708 80.7695 9.428 80.7695 7.908C80.7695 5.732 80.0335 5.06 79.0095 5.06C78.3695 5.06 77.8095 5.284 77.2975 5.796C77.5855 6.468 77.7455 7.3 77.7455 8.276C77.7455 10.964 76.4815 12.692 74.3375 12.692C72.1775 12.692 70.9295 11.044 70.9295 8.292C70.9295 5.604 72.1935 3.876 74.3535 3.876C75.3775 3.876 76.1775 4.244 76.7535 4.916C77.3775 4.244 78.1935 3.876 79.1375 3.876ZM74.3375 11.508C75.5055 11.508 76.1935 10.484 76.1935 8.276C76.1935 6.084 75.5055 5.06 74.3535 5.06C73.1855 5.06 72.4815 6.084 72.4815 8.292C72.4815 10.484 73.1695 11.508 74.3375 11.508ZM93.3404 0.452C94.4124 0.452 95.5964 1.108 95.5964 2.74V8.644C95.5964 11.108 94.4604 12.724 92.1564 12.724C89.7884 12.724 88.6044 11.108 88.6044 8.548C88.6044 6.388 89.7404 4.388 91.8524 4.388C92.8444 4.388 93.5644 4.868 94.1244 5.46V2.836C94.1244 1.988 93.7404 1.604 93.0684 1.604C92.4924 1.604 92.0124 1.94 92.0124 2.692V3.38L90.6044 3.476V2.852C90.6044 2.036 90.2844 1.636 89.6764 1.636C89.4044 1.636 89.1164 1.7 88.6844 1.892L88.2364 0.851999C88.6364 0.612 89.0684 0.452 89.6764 0.452C90.3164 0.452 91.0844 0.66 91.3404 1.78C91.6924 0.66 92.6364 0.452 93.3404 0.452ZM92.1564 11.54C93.5164 11.54 94.1244 10.372 94.1244 8.548V6.692C93.5964 6.02 92.9724 5.572 92.1084 5.572C90.9244 5.572 90.1884 6.676 90.1884 8.548C90.1884 10.548 90.7964 11.54 92.1564 11.54ZM100.866 3.876C102.69 3.876 104.05 5.092 104.05 7.044V12.436C104.05 14.468 102.85 15.956 100.754 15.956C98.4181 15.956 97.4101 14.372 97.4101 12.756C97.4101 11.956 97.6501 11.22 97.9381 10.644L99.2021 10.98C99.0261 11.492 98.8981 12.052 98.8981 12.756C98.8981 13.956 99.5381 14.772 100.754 14.772C102.098 14.772 102.578 13.7 102.578 12.26V7.14C102.578 5.972 102.114 5.06 100.866 5.06C99.6021 5.06 99.1381 5.908 99.1381 6.74C99.1381 7.252 99.2341 7.668 99.3461 8.02L98.0181 8.292C97.7941 7.828 97.6341 7.252 97.6341 6.724C97.6341 5.012 99.0741 3.876 100.866 3.876ZM106.327 8.66V0.676L107.799 0.452V8.548C107.799 10.468 108.327 11.572 109.799 11.572C111.095 11.572 111.735 10.564 111.735 9.092C111.735 6.724 109.927 6.164 109.927 4.068H111.399C111.399 5.7 113.255 6.308 113.255 9.092C113.255 11.06 112.135 12.724 109.783 12.724C107.543 12.724 106.327 11.348 106.327 8.66ZM119.472 9.188C120.688 9.396 121.872 10.404 121.872 12.436C121.872 14.372 120.56 15.956 118.304 15.956C115.92 15.956 114.848 14.484 114.848 12.852C114.848 12.148 115.04 11.604 115.328 11.06L116.576 11.396C116.448 11.796 116.336 12.244 116.336 12.82C116.336 13.988 116.992 14.772 118.304 14.772C119.808 14.772 120.32 13.652 120.32 12.26C120.32 10.964 119.712 9.86 118.272 9.86H117.6L117.696 8.676H118.304C119.2 8.676 120.032 8.068 120.032 6.82C120.032 5.844 119.472 5.06 118.256 5.06C117.04 5.06 116.464 5.812 116.464 6.74C116.464 7.092 116.528 7.412 116.608 7.732L115.28 7.972C115.088 7.556 114.976 7.092 114.976 6.644C114.976 5.044 116.352 3.876 118.256 3.876C120.208 3.876 121.552 5.124 121.552 6.724C121.552 8.1 120.672 8.9 119.472 9.188ZM135.103 3.876C136.655 3.876 138.063 5.06 138.063 7.572C138.063 9.3 137.791 10.452 137.359 11.412L136.079 11.076C136.415 9.956 136.575 8.996 136.575 7.588C136.575 5.572 135.775 5.06 134.991 5.06C134.239 5.06 133.647 5.572 133.647 6.772V9.78L132.239 9.908V6.772C132.239 5.572 131.663 5.06 130.879 5.06C130.095 5.06 129.503 5.572 129.503 6.772V9.748L128.095 9.908V6.772C128.095 5.572 127.535 5.06 126.735 5.06C125.727 5.06 125.167 6.004 125.167 7.78C125.167 11.22 127.823 12.084 129.791 12.74C131.071 13.172 133.135 13.86 134.063 15.172L133.135 15.956C131.855 14.532 130.639 14.132 129.327 14.132C128.143 14.132 127.199 14.5 126.271 15.044L125.839 13.716C126.655 13.348 127.343 13.204 128.399 13.204C125.935 12.676 123.695 11.124 123.695 7.732C123.695 4.98 125.055 3.876 126.575 3.876C127.743 3.876 128.527 4.452 128.815 5.668C129.023 4.468 129.759 3.876 130.847 3.876C132.047 3.876 132.671 4.452 132.959 5.668C133.167 4.468 133.983 3.876 135.103 3.876ZM143.687 4.068C143.687 5.892 146.407 7.028 146.407 9.652C146.407 11.556 144.951 12.724 143.079 12.724C140.855 12.724 139.783 11.268 139.783 9.796C139.783 9.156 139.959 8.58 140.231 8.084L141.479 8.42C141.351 8.804 141.271 9.252 141.271 9.748C141.271 10.82 141.943 11.54 143.079 11.54C144.327 11.54 144.855 10.692 144.855 9.62C144.855 7.38 142.215 6.724 142.215 4.068H143.687Z" fill="#4F61C1"/>
</svg>
