<svg width="20" height="20" viewBox="0 0 20 20" fill="none" xmlns="http://www.w3.org/2000/svg">
<path fill-rule="evenodd" clip-rule="evenodd" d="M10.0001 6.66667C8.15915 6.66667 6.66676 8.15905 6.66676 10C6.66676 11.8409 8.15915 13.3333 10.0001 13.3333C11.841 13.3333 13.3334 11.8409 13.3334 10C13.3334 8.15905 11.841 6.66667 10.0001 6.66667ZM8.33343 10C8.33343 9.07953 9.07962 8.33333 10.0001 8.33333C10.9206 8.33333 11.6668 9.07953 11.6668 10C11.6668 10.9205 10.9206 11.6667 10.0001 11.6667C9.07962 11.6667 8.33343 10.9205 8.33343 10Z" fill="#B1B2B2"/>
<path fill-rule="evenodd" clip-rule="evenodd" d="M19.9118 9.62673C19.912 9.62704 19.9121 9.62732 19.1668 10C19.9121 10.3727 19.912 10.373 19.9118 10.3733L19.9105 10.3759L19.9076 10.3816L19.8981 10.4001C19.8902 10.4156 19.879 10.4372 19.8645 10.4646C19.8355 10.5194 19.7934 10.5973 19.7385 10.695C19.6286 10.8903 19.4669 11.1654 19.2548 11.4938C18.8317 12.1489 18.2027 13.0245 17.3789 13.9033C15.7464 15.6446 13.2497 17.5 10.0001 17.5C6.75051 17.5 4.25383 15.6446 2.62132 13.9033C1.79746 13.0245 1.16849 12.1489 0.745377 11.4938C0.533306 11.1654 0.371591 10.8903 0.26174 10.695C0.206784 10.5973 0.164714 10.5194 0.135725 10.4646C0.121228 10.4372 0.109994 10.4156 0.102046 10.4001L0.0925892 10.3816L0.0897133 10.3759L0.0887393 10.374C0.0885862 10.3737 0.0880749 10.3727 0.833431 10C0.0880749 9.62732 0.0882152 9.62704 0.0883683 9.62673L0.0897133 9.62406L0.0925892 9.61837L0.102046 9.59985C0.109994 9.58439 0.121228 9.56276 0.135725 9.53537C0.164714 9.48058 0.206784 9.40269 0.26174 9.30499C0.371591 9.1097 0.533306 8.8346 0.745377 8.50623C1.16849 7.85109 1.79746 6.9755 2.62132 6.09672C4.25383 4.35537 6.75051 2.5 10.0001 2.5C13.2497 2.5 15.7464 4.35537 17.3789 6.09672C18.2027 6.9755 18.8317 7.85109 19.2548 8.50623C19.4669 8.8346 19.6286 9.1097 19.7385 9.30499C19.7934 9.40269 19.8355 9.48058 19.8645 9.53537C19.879 9.56276 19.8902 9.58439 19.8981 9.59985L19.9076 9.61837L19.9105 9.62406L19.9118 9.62673ZM2.14544 10.5896C1.99587 10.358 1.87512 10.1574 1.78405 10C1.87512 9.84261 1.99587 9.64204 2.14544 9.41044C2.52963 8.81557 3.09857 8.0245 3.83721 7.23662C5.3297 5.64463 7.41635 4.16667 10.0001 4.16667C12.5838 4.16667 14.6705 5.64463 16.163 7.23662C16.9016 8.0245 17.4706 8.81557 17.8548 9.41044C18.0043 9.64204 18.1251 9.84261 18.2161 10C18.1251 10.1574 18.0043 10.358 17.8548 10.5896C17.4706 11.1844 16.9016 11.9755 16.163 12.7634C14.6705 14.3554 12.5838 15.8333 10.0001 15.8333C7.41635 15.8333 5.3297 14.3554 3.83721 12.7634C3.09857 11.9755 2.52963 11.1844 2.14544 10.5896Z" fill="#B1B2B2"/>
<path d="M19.1668 10L19.9118 9.62673C20.0291 9.86134 20.0291 10.1387 19.9118 10.3733L19.1668 10Z" fill="#B1B2B2"/>
<path d="M0.0883683 9.62673L0.833431 10L0.0880749 10.3727C-0.0292282 10.1381 -0.0289348 9.86134 0.0883683 9.62673Z" fill="#B1B2B2"/>
</svg>
