<svg width="11" height="11" viewBox="0 0 11 11" fill="none" xmlns="http://www.w3.org/2000/svg">
<path d="M9.97108 1.97132C10.2314 1.71097 10.2314 1.28886 9.97108 1.02851C9.71073 0.768165 9.28862 0.768165 9.02827 1.02851L5.49967 4.55711L1.97108 1.02851C1.71073 0.768165 1.28862 0.768165 1.02827 1.02851C0.76792 1.28886 0.76792 1.71097 1.02827 1.97132L4.55687 5.49992L1.02827 9.02851C0.76792 9.28886 0.76792 9.71097 1.02827 9.97132C1.28862 10.2317 1.71073 10.2317 1.97108 9.97132L5.49967 6.44273L9.02827 9.97132C9.28862 10.2317 9.71073 10.2317 9.97108 9.97132C10.2314 9.71097 10.2314 9.28886 9.97108 9.02851L6.44248 5.49992L9.97108 1.97132Z" fill="#535353"/>
</svg>
