<svg width="381" height="348" viewBox="0 0 381 348" fill="none" xmlns="http://www.w3.org/2000/svg">
<circle cx="190.244" cy="192.018" r="155.654" fill="#C5E2FB"/>
<circle cx="44.3462" cy="86.9182" r="9.75611" fill="#C5E2FB"/>
<circle cx="244.346" cy="18.1818" r="18.1818" fill="#C5E2FB"/>
<circle cx="58.98" cy="316.187" r="17.2949" fill="#C5E2FB"/>
<circle cx="356.985" cy="275.389" r="17.2949" fill="#C5E2FB"/>
<circle cx="323.282" cy="294.901" r="8.42573" fill="#C5E2FB"/>
<path d="M198.276 43.7525C197.959 43.6852 197.959 43.233 198.276 43.1657L207.028 41.3044C207.144 41.2799 207.234 41.1899 207.259 41.0746L209.141 32.3943C209.21 32.0791 209.659 32.0791 209.728 32.3943L211.61 41.0746C211.635 41.1899 211.725 41.2799 211.841 41.3044L220.593 43.1657C220.91 43.233 220.91 43.6852 220.593 43.7525L211.841 45.6138C211.725 45.6383 211.635 45.7283 211.61 45.8436L209.728 54.5239C209.659 54.8391 209.21 54.8391 209.141 54.5239L207.259 45.8436C207.234 45.7283 207.144 45.6383 207.028 45.6138L198.276 43.7525Z" fill="#008BFF"/>
<path d="M21.8169 201.195C21.9391 200.618 22.7638 200.618 22.886 201.195L26.2295 216.991C26.274 217.202 26.4377 217.366 26.6478 217.412L42.2521 220.811C42.8256 220.936 42.8256 221.754 42.2521 221.879L26.6478 225.279C26.4377 225.324 26.274 225.489 26.2295 225.699L22.886 241.495C22.7638 242.073 21.9391 242.073 21.8169 241.495L18.4734 225.699C18.4289 225.489 18.2652 225.324 18.0551 225.279L2.4508 221.879C1.87731 221.754 1.87731 220.936 2.4508 220.811L18.0551 217.412C18.2652 217.366 18.4289 217.202 18.4734 216.991L21.8169 201.195Z" fill="#008BFF"/>
<path d="M329.686 89.4435C329.808 88.8658 330.633 88.8658 330.755 89.4435L332.863 99.4038C332.908 99.6141 333.072 99.7788 333.282 99.8246L343.134 101.971C343.707 102.096 343.707 102.914 343.134 103.039L333.282 105.185C333.072 105.231 332.908 105.395 332.863 105.606L330.755 115.566C330.633 116.144 329.808 116.144 329.686 115.566L327.578 105.606C327.533 105.395 327.369 105.231 327.159 105.185L317.307 103.039C316.734 102.914 316.734 102.096 317.307 101.971L327.159 99.8246C327.369 99.7788 327.533 99.6141 327.578 99.4038L329.686 89.4435Z" fill="#008BFF"/>
<path d="M365.108 222.022L367.824 234.854L380.472 237.609L367.824 240.365L365.108 253.196L362.392 240.365L349.744 237.609L362.392 234.854L365.108 222.022Z" fill="white"/>
<path d="M278.493 121.508L68.7366 201.774L113.526 326.386L140.577 338.36L174.28 345.455L208.426 344.125L228.382 340.577L246.12 335.255L275.389 320.178L300.222 300.665L302.14 298.187C312.963 284.197 322.559 269.299 330.821 253.659L278.493 121.508Z" fill="url(#paint0_linear_199006_4158)"/>
<path d="M84.7008 166.297L62.5278 153.88L254.989 81.1523L244.79 106.43L252.329 129.933L93.1265 190.687L84.7008 166.297Z" fill="#CCE8FF"/>
<path d="M112.639 325.942V325.942C132.046 335.865 153.057 342.273 174.699 344.87L175.239 344.935L190.669 344.935C202.227 344.935 213.752 343.705 225.05 341.266L228.875 340.44C240.954 337.832 252.616 333.573 263.534 327.784V327.784C272.052 323.267 280.06 317.847 287.421 311.619L289.81 309.598C296.198 304.193 302.125 298.266 307.53 291.878V291.878C315.098 282.934 321.598 273.139 326.9 262.691L331.708 253.215" stroke="#008BFF" stroke-width="2"/>
<path d="M67.0349 199.924L113.526 326.8" stroke="#008BFF" stroke-width="2"/>
<path d="M280.339 121.431L331.342 254.698" stroke="#008BFF" stroke-width="2"/>
<path d="M59.0526 154.247L257.717 79.597" stroke="#008BFF" stroke-width="2"/>
<path d="M66.0075 202.209L277.544 120.63L245.735 105.857C245.184 105.601 244.947 104.944 245.21 104.395L256.367 81.0493" stroke="#008BFF" stroke-width="2"/>
<path d="M60.8353 153.635L83.7837 165.938C84.3074 166.219 84.5108 166.867 84.2416 167.396L67.0352 201.254" stroke="#008BFF" stroke-width="2"/>
<path d="M59.9397 152.03L74.3481 188.046" stroke="#008BFF" stroke-width="2"/>
<path d="M84.2573 167.627L93.1265 192.461" stroke="#008BFF" stroke-width="2"/>
<path d="M245.677 105.543L254.546 131.264" stroke="#008BFF" stroke-width="2"/>
<path d="M256.522 81.4648L269.252 116.553" stroke="#008BFF" stroke-width="2"/>
<circle cx="150.333" cy="190.243" r="9.31266" fill="#DDE2FF"/>
<circle cx="137.029" cy="142.35" r="6.65189" fill="#80C5FF"/>
<circle cx="208.869" cy="168.07" r="9.31266" fill="#DDE2FF"/>
<circle cx="177.827" cy="127.272" r="6.65189" fill="#80C5FF"/>
<defs>
<linearGradient id="paint0_linear_199006_4158" x1="234.59" y1="337.916" x2="169.402" y2="151.22" gradientUnits="userSpaceOnUse">
<stop stop-color="#CCE8FF"/>
<stop offset="1" stop-color="white"/>
</linearGradient>
</defs>
</svg>
